<svg id="visual" viewBox="0 0 450 900" width="450" height="900" xmlns="http://www.w3.org/2000/svg" xmlns:xlink="http://www.w3.org/1999/xlink" version="1.1"><path d="M0 443L18.8 477.5C37.7 512 75.3 581 112.8 603.7C150.3 626.3 187.7 602.7 225.2 518.3C262.7 434 300.3 289 337.8 274C375.3 259 412.7 374 431.3 431.5L450 489L450 0L431.3 0C412.7 0 375.3 0 337.8 0C300.3 0 262.7 0 225.2 0C187.7 0 150.3 0 112.8 0C75.3 0 37.7 0 18.8 0L0 0Z" fill="#0f00db" stroke-linecap="round" stroke-linejoin="miter"></path></svg>