<svg id="visual" viewBox="0 0 450 900" width="450" height="900" xmlns="http://www.w3.org/2000/svg" xmlns:xlink="http://www.w3.org/1999/xlink" version="1.1"><path d="M0 790L9.3 697C18.7 604 37.3 418 56.2 427.3C75 436.7 94 641.3 112.8 752.3C131.7 863.3 150.3 880.7 169 842.8C187.7 805 206.3 712 225 611.7C243.7 511.3 262.3 403.7 281.2 358.2C300 312.7 319 329.3 337.8 361.3C356.7 393.3 375.3 440.7 394 397.5C412.7 354.3 431.3 220.7 440.7 153.8L450 87L450 0L440.7 0C431.3 0 412.7 0 394 0C375.3 0 356.7 0 337.8 0C319 0 300 0 281.2 0C262.3 0 243.7 0 225 0C206.3 0 187.7 0 169 0C150.3 0 131.7 0 112.8 0C94 0 75 0 56.2 0C37.3 0 18.7 0 9.3 0L0 0Z" fill="#0f00db" stroke-linecap="round" stroke-linejoin="miter"></path></svg>