<svg id="visual" viewBox="0 0 450 900" width="450" height="900" xmlns="http://www.w3.org/2000/svg" xmlns:xlink="http://www.w3.org/1999/xlink" version="1.1"><path d="M0 447L12.5 434.7C25 422.3 50 397.7 75 378.7C100 359.7 125 346.3 150 346.7C175 347 200 361 225 381.5C250 402 275 429 300 450.2C325 471.3 350 486.7 375 472.7C400 458.7 425 415.3 437.5 393.7L450 372L450 0L437.5 0C425 0 400 0 375 0C350 0 325 0 300 0C275 0 250 0 225 0C200 0 175 0 150 0C125 0 100 0 75 0C50 0 25 0 12.5 0L0 0Z" fill="#171174" stroke-linecap="round" stroke-linejoin="miter"></path></svg>