<?xml version="1.0" encoding="UTF-8"?><svg xmlns="http://www.w3.org/2000/svg" width="40px" height="40px" fill="none" stroke-width="0.8" viewBox="0 0 24 24" color="#000000"><path stroke="#000000" stroke-width="0.8" d="M11 8.5 9.8 9l-7.448 3.386a.6.6 0 0 0-.352.546v.136a.6.6 0 0 0 .352.546l8.82 4.01a2 2 0 0 0 1.656 0l8.82-4.01a.6.6 0 0 0 .352-.546v-.136a.6.6 0 0 0-.352-.546L14.2 9 13 8.5"></path><path stroke="#000000" stroke-width="0.8" d="M22 13v4.112a.6.6 0 0 1-.354.547l-8.825 3.972a2 2 0 0 1-1.642 0l-8.825-3.972A.6.6 0 0 1 2 17.112V13"></path><path stroke="#000000" stroke-width="0.8" stroke-linecap="round" stroke-linejoin="round" d="M12 8a3 3 0 1 1 0-6 3 3 0 0 1 0 6Z"></path><path stroke="#000000" stroke-width="0.8" d="M11 8v5a1 1 0 1 0 2 0V8"></path><path stroke="#000000" stroke-width="0.8" stroke-linecap="round" stroke-linejoin="round" d="M16 13h1"></path></svg>