<?xml version="1.0" encoding="UTF-8"?><svg xmlns="http://www.w3.org/2000/svg" width="40px" height="40px" fill="none" stroke-width="0.8" viewBox="0 0 24 24" color="#000000"><path stroke="#000000" stroke-width="0.8" stroke-linecap="round" stroke-linejoin="round" d="M8.5 14.5 5 22M8 6s1-1.061 1-2c0-1.333-1-2-1-2M12 6s1-1.061 1-2c0-1.333-1-2-1-2M16 6s1-1.061 1-2c0-1.333-1-2-1-2"></path><path stroke="#000000" stroke-width="0.8" stroke-linejoin="round" d="M16.5 17.5h-9"></path><path stroke="#000000" stroke-width="0.8" stroke-linecap="round" stroke-linejoin="round" d="m15.5 14.5 2.1 4.5M18.5 22a1.5 1.5 0 1 0 0-3 1.5 1.5 0 0 0 0 3Z"></path><path stroke="#000000" stroke-width="0.8" d="M12 15a7 7 0 0 0 6.975-6.4.563.563 0 0 0-.575-.6H5.6a.563.563 0 0 0-.575.6A7 7 0 0 0 12 15Z"></path></svg>