<?xml version="1.0" encoding="UTF-8"?><svg xmlns="http://www.w3.org/2000/svg" width="40px" height="40px" fill="none" stroke-width="0.8" viewBox="0 0 24 24" color="#000000"><path stroke="#000000" stroke-width="0.8" stroke-linecap="round" stroke-linejoin="round" d="M21.5 14 20 9s-.5-2-2.5-2c0 0 0-2-2-2s-2 2-2 2h-3s0-2-2-2-2 2-2 2C4.5 7 4 9 4 9l-1.5 5"></path><path stroke="#000000" stroke-width="0.8" stroke-linecap="round" stroke-linejoin="round" d="M6 20a4 4 0 1 0 0-8 4 4 0 0 0 0 8ZM18 20a4 4 0 1 0 0-8 4 4 0 0 0 0 8Z"></path><path stroke="#000000" stroke-width="0.8" stroke-linecap="round" stroke-linejoin="round" d="M12 16a2 2 0 1 0 0-4 2 2 0 0 0 0 4Z"></path></svg>