<?xml version="1.0" encoding="UTF-8"?><svg xmlns="http://www.w3.org/2000/svg" width="40px" height="40px" fill="none" stroke-width="0.8" viewBox="0 0 24 24" color="#000000"><path stroke="#000000" stroke-width="0.8" stroke-linecap="round" stroke-linejoin="round" d="M8 10h8M7 14h1M16 14h1"></path><path stroke="#000000" stroke-width="0.8" d="M3 18v-6.59a2 2 0 0 1 .162-.787l2.319-5.41A2 2 0 0 1 7.319 4h9.362a2 2 0 0 1 1.838 1.212l2.32 5.41a2 2 0 0 1 .161.789V18M3 18v2.4a.6.6 0 0 0 .6.6h2.8a.6.6 0 0 0 .6-.6V18m-4 0h4m14 0v2.4a.6.6 0 0 1-.6.6h-2.8a.6.6 0 0 1-.6-.6V18m4 0h-4M7 18h10"></path></svg>