<?xml version="1.0" encoding="UTF-8"?><svg xmlns="http://www.w3.org/2000/svg" width="40px" height="40px" fill="none" stroke-width="0.8" viewBox="0 0 24 24" color="#000000"><path fill="#000000" stroke="#000000" stroke-width="0.8" stroke-linecap="round" stroke-linejoin="round" d="M19.5 22a1.5 1.5 0 1 0 0-3 1.5 1.5 0 0 0 0 3ZM9.5 22a1.5 1.5 0 1 0 0-3 1.5 1.5 0 0 0 0 3Z"></path><path stroke="#000000" stroke-width="0.8" stroke-linecap="round" stroke-linejoin="round" d="M16.5 4H22l-2 11h-4.5m1-11-1 11m1-11h-5.75m4.75 11h-4m-.75-11H5l2 11h4.5m-.75-11 .75 11M5 4c-.167-.667-1-2-3-2M20 15H5.23c-1.784 0-2.73.781-2.73 2 0 1.219.946 2 2.73 2H19.5"></path></svg>