<?xml version="1.0" encoding="UTF-8"?><svg xmlns="http://www.w3.org/2000/svg" width="40px" height="40px" fill="none" stroke-width="0.8" viewBox="0 0 24 24" color="#000000"><path stroke="#000000" stroke-width="0.8" stroke-linecap="round" stroke-linejoin="round" d="M7 14a2 2 0 1 0 0-4 2 2 0 0 0 0 4ZM17 14a2 2 0 1 0 0-4 2 2 0 0 0 0 4ZM12 9a2 2 0 1 0 0-4 2 2 0 0 0 0 4ZM12 19a2 2 0 1 0 0-4 2 2 0 0 0 0 4Z"></path><path stroke="#000000" stroke-width="0.8" stroke-linecap="round" stroke-linejoin="round" d="M2 12c0 5.523 4.477 10 10 10s10-4.477 10-10S17.523 2 12 2 2 6.477 2 12Zm0 0v10"></path></svg>