<?xml version="1.0" encoding="UTF-8"?><svg xmlns="http://www.w3.org/2000/svg" width="40px" height="40px" fill="none" stroke-width="0.8" viewBox="0 0 24 24" color="#000000"><path stroke="#000000" stroke-width="0.8" stroke-linecap="round" stroke-linejoin="round" stroke-miterlimit="1.5" d="M8 19a2 2 0 1 0 0-4 2 2 0 0 0 0 4ZM18 19a2 2 0 1 0 0-4 2 2 0 0 0 0 4Z"></path><path stroke="#000000" stroke-width="0.8" stroke-linecap="round" d="M10.05 17H15V6.6a.6.6 0 0 0-.6-.6H1M5.65 17H3.6a.6.6 0 0 1-.6-.6v-4.9"></path><path stroke="#000000" stroke-width="0.8" stroke-linecap="round" stroke-linejoin="round" d="M2 9h4"></path><path stroke="#000000" stroke-width="0.8" stroke-linecap="round" d="M15 9h5.61a.6.6 0 0 1 .548.356l1.79 4.028a.6.6 0 0 1 .052.243V16.4a.6.6 0 0 1-.6.6h-1.9M15 17h1"></path></svg>