<?xml version="1.0" encoding="UTF-8"?><svg xmlns="http://www.w3.org/2000/svg" width="40px" height="40px" fill="none" stroke-width="0.8" viewBox="0 0 24 24" color="#000000"><path stroke="#000000" stroke-width="0.8" d="M3 20.4V3.6a.6.6 0 0 1 .6-.6h16.8a.6.6 0 0 1 .6.6v16.8a.6.6 0 0 1-.6.6H3.6a.6.6 0 0 1-.6-.6Z"></path><path fill="#000000" stroke="#000000" stroke-width="0.8" stroke-linecap="round" stroke-linejoin="round" d="M7.5 8a.5.5 0 1 1 0-1 .5.5 0 0 1 0 1ZM16.5 8a.5.5 0 1 1 0-1 .5.5 0 0 1 0 1ZM12 12.5a.5.5 0 1 1 0-1 .5.5 0 0 1 0 1ZM7.5 17a.5.5 0 1 1 0-1 .5.5 0 0 1 0 1ZM16.5 17a.5.5 0 1 1 0-1 .5.5 0 0 1 0 1Z"></path></svg>