<?xml version="1.0" encoding="UTF-8"?><svg xmlns="http://www.w3.org/2000/svg" width="40px" height="40px" fill="none" stroke-width="0.8" viewBox="0 0 24 24" color="#000000"><path fill="#000000" d="M2.8 8.1a.9.9 0 1 1-1.8 0 .9.9 0 0 1 1.8 0Z"></path><path stroke="#000000" stroke-width="0.8" stroke-linecap="round" d="M2.8 8.1a.9.9 0 1 1-1.8 0 .9.9 0 0 1 1.8 0Zm0 0V3.6a.6.6 0 0 1 .6-.6H5"></path><path stroke="#000000" stroke-width="0.8" stroke-linecap="round" stroke-linejoin="round" d="M8 17a2 2 0 1 0 0-4 2 2 0 0 0 0 4Z"></path><path stroke="#000000" stroke-width="0.8" stroke-linecap="round" stroke-linejoin="round" d="M2.05 13c.501 5.053 4.765 9 9.95 9 5.523 0 10-4.477 10-10S17.523 2 12 2a9.966 9.966 0 0 0-4 .832"></path><path fill="#000000" stroke="#000000" stroke-width="0.8" stroke-linecap="round" stroke-linejoin="round" d="M15.5 9a.5.5 0 1 0 0-1 .5.5 0 0 0 0 1ZM8.5 9a.5.5 0 1 0 0-1 .5.5 0 0 0 0 1Z"></path></svg>