<?xml version="1.0" encoding="UTF-8"?><svg xmlns="http://www.w3.org/2000/svg" width="40px" height="40px" fill="none" stroke-width="0.8" viewBox="0 0 24 24" color="#000000"><path stroke="#000000" stroke-width="0.8" stroke-linecap="round" stroke-linejoin="round" d="M12 22C6.477 22 2 17.523 2 12S6.477 2 12 2s10 4.477 10 10-4.477 10-10 10Z"></path><path stroke="#000000" stroke-width="0.8" stroke-linecap="round" stroke-linejoin="round" d="M16.5 14.5s-1.5 2-4.5 2-4.5-2-4.5-2"></path><path fill="#000000" stroke="#000000" stroke-width="0.8" stroke-linecap="round" stroke-linejoin="round" d="M15.5 9a.5.5 0 1 1 0-1 .5.5 0 0 1 0 1ZM8.5 9a.5.5 0 1 1 0-1 .5.5 0 0 1 0 1Z"></path></svg>