<?xml version="1.0" encoding="UTF-8"?><svg xmlns="http://www.w3.org/2000/svg" width="40px" height="40px" fill="none" stroke-width="0.8" viewBox="0 0 24 24" color="#000000"><path stroke="#000000" stroke-width="0.8" stroke-linecap="round" stroke-linejoin="round" d="M7.4 7H4.6a.6.6 0 0 0-.6.6v8.8a.6.6 0 0 0 .6.6h2.8a.6.6 0 0 0 .6-.6V7.6a.6.6 0 0 0-.6-.6ZM19.4 7h-2.8a.6.6 0 0 0-.6.6v8.8a.6.6 0 0 0 .6.6h2.8a.6.6 0 0 0 .6-.6V7.6a.6.6 0 0 0-.6-.6Z"></path><path stroke="#000000" stroke-width="0.8" stroke-linecap="round" stroke-linejoin="round" d="M1 14.4V9.6a.6.6 0 0 1 .6-.6h1.8a.6.6 0 0 1 .6.6v4.8a.6.6 0 0 1-.6.6H1.6a.6.6 0 0 1-.6-.6ZM23 14.4V9.6a.6.6 0 0 0-.6-.6h-1.8a.6.6 0 0 0-.6.6v4.8a.6.6 0 0 0 .6.6h1.8a.6.6 0 0 0 .6-.6ZM8 12h8"></path></svg>