<?xml version="1.0" encoding="UTF-8"?><svg xmlns="http://www.w3.org/2000/svg" width="40px" height="40px" fill="none" stroke-width="0.8" viewBox="0 0 24 24" color="#000000"><path stroke="#000000" stroke-width="0.8" stroke-linecap="round" stroke-linejoin="round" d="M4 13.5V13c0-4.97 3.582-9 8-9s8 4.03 8 9v.5"></path><path stroke="#000000" stroke-width="0.8" stroke-linecap="round" stroke-linejoin="round" d="M2 17.439v-1.877a2 2 0 0 1 1.515-1.94L4 13.5l1.254-.314a.6.6 0 0 1 .746.582v5.464a.6.6 0 0 1-.746.582l-1.74-.435A2 2 0 0 1 2 17.439ZM22 17.439v-1.877a2 2 0 0 0-1.515-1.94L20 13.5l-1.255-.314a.6.6 0 0 0-.745.582v5.464a.6.6 0 0 0 .745.582l1.74-.435A2 2 0 0 0 22 17.439Z"></path></svg>