<?xml version="1.0" encoding="UTF-8"?><svg xmlns="http://www.w3.org/2000/svg" width="40px" height="40px" fill="none" stroke-width="0.8" viewBox="0 0 24 24" color="#000000"><path stroke="#000000" stroke-width="0.8" d="M6.4 8a.6.6 0 0 0 .6-.6V3.6a.6.6 0 0 1 .6-.6h8.8a.6.6 0 0 1 .6.6v3.8a.6.6 0 0 0 .6.6h1.8a.6.6 0 0 1 .6.6v11.8a.6.6 0 0 1-.6.6H4.6a.6.6 0 0 1-.6-.6V8.6a.6.6 0 0 1 .6-.6h1.8Z"></path><path stroke="#000000" stroke-width="0.8" stroke-linecap="round" stroke-linejoin="round" d="M9.992 8h2m2 0h-2m0 0V6m0 2v2M16 17.01l.01-.011M16 13.01l.01-.011M12 13.01l.01-.011M8 13.01l.01-.011M8 17.01l.01-.011M12 17.01l.01-.011"></path></svg>