<?xml version="1.0" encoding="UTF-8"?><svg xmlns="http://www.w3.org/2000/svg" width="40px" height="40px" fill="none" stroke-width="0.8" viewBox="0 0 24 24" color="#000000"><path stroke="#000000" stroke-width="0.8" d="M2 17V7a4 4 0 0 1 4-4h3.9a.6.6 0 0 1 .6.6v16.8a.6.6 0 0 1-.6.6H6a4 4 0 0 1-4-4Z"></path><path fill="#000000" stroke="#000000" stroke-width="0.8" stroke-linecap="round" stroke-linejoin="round" d="M6.5 8a1 1 0 1 0 0-2 1 1 0 0 0 0 2ZM17.5 14a1 1 0 1 0 0-2 1 1 0 0 0 0 2Z"></path><path stroke="#000000" stroke-width="0.8" d="M22 17V7a4 4 0 0 0-4-4h-3.9a.6.6 0 0 0-.6.6v16.8a.6.6 0 0 0 .6.6H18a4 4 0 0 0 4-4Z"></path></svg>