<?xml version="1.0" encoding="UTF-8"?><svg xmlns="http://www.w3.org/2000/svg" width="40px" height="40px" fill="none" stroke-width="0.8" viewBox="0 0 24 24" color="#000000"><path stroke="#000000" stroke-width="0.8" stroke-linecap="round" stroke-linejoin="round" d="M17.5 17.5c2.5 3.5 6.449.915 5.5-2.5-1.425-5.129-2.2-7.984-2.603-9.492A2.032 2.032 0 0 0 18.438 4H5.562c-.918 0-1.718.625-1.941 1.515C2.78 8.863 2.033 11.802 1.144 15c-.948 3.415 3 6 5.5 2.5"></path><path stroke="#000000" stroke-width="0.8" stroke-linecap="round" stroke-linejoin="round" d="M16 4v2a2 2 0 0 1-2 2h-4a2 2 0 0 1-2-2V4M8 16a2 2 0 1 0 0-4 2 2 0 0 0 0 4ZM16 16a2 2 0 1 0 0-4 2 2 0 0 0 0 4Z"></path></svg>